<?xml version="1.0" standalone="no"?>
<!DOCTYPE svg PUBLIC "-//W3C//DTD SVG 20010904//EN"
 "http://www.w3.org/TR/2001/REC-SVG-20010904/DTD/svg10.dtd">
<svg version="1.0" xmlns="http://www.w3.org/2000/svg"
 width="1024.000000pt" height="1024.000000pt" viewBox="0 0 1024.000000 1024.000000"
 preserveAspectRatio="xMidYMid meet">
<metadata>
Created by potrace 1.11, written by Peter Selinger 2001-2013
</metadata>
<g transform="translate(0.000000,1024.000000) scale(0.100000,-0.100000)"
fill="#000000" stroke="none">
<path d="M5115 5115 l-5120 -5115 5123 0 5122 0 0 5115 c0 2813 -1 5115 -2
5114 -2 0 -2307 -2301 -5123 -5114z m1960 -445 c885 -75 1696 -675 1954 -1447
64 -191 84 -318 84 -518 -1 -287 -57 -490 -203 -735 -41 -70 -77 -116 -165
-212 -232 -254 -557 -419 -963 -489 -245 -43 -613 -23 -877 47 -433 116 -795
322 -1096 623 -327 329 -506 679 -564 1105 -48 352 55 734 273 1021 195 255
487 446 827 541 116 32 294 63 370 65 33 1 74 5 90 9 31 8 69 6 270 -10z"/>
<path d="M6775 4558 c-3 -7 -27 -89 -55 -181 -27 -93 -52 -173 -55 -178 -8
-12 -432 -12 -440 1 -5 9 41 178 66 239 5 13 7 26 4 29 -17 17 -255 -94 -381
-178 -119 -79 -305 -273 -380 -395 -246 -401 -256 -886 -29 -1350 68 -139 120
-225 134 -225 5 0 13 17 19 38 19 67 106 358 353 1177 17 55 36 120 43 145
l12 45 222 3 c195 2 222 1 222 -13 0 -9 -36 -136 -81 -283 -44 -147 -107 -357
-140 -467 -33 -110 -71 -236 -84 -280 -14 -44 -46 -152 -73 -240 l-48 -160
-207 -3 c-137 -1 -207 -6 -207 -13 0 -19 122 -163 226 -266 163 -160 364 -303
572 -407 332 -166 636 -239 992 -239 217 0 353 18 536 71 442 129 782 429 931
822 138 363 100 797 -101 1176 -51 96 -158 264 -168 264 -12 0 -23 -29 -63
-167 l-39 -131 -165 -4 c-179 -4 -215 -13 -238 -60 -32 -63 -22 -87 113 -254
146 -180 159 -202 174 -270 14 -65 -7 -164 -50 -239 -61 -106 -199 -214 -330
-257 -58 -19 -93 -22 -337 -26 -188 -3 -273 -1 -273 6 0 6 11 46 24 89 13 43
36 117 50 166 l27 87 165 0 c176 0 206 7 238 52 30 43 21 88 -33 155 -28 34
-90 112 -140 173 -105 130 -126 180 -119 274 8 94 54 184 135 265 79 78 147
120 257 155 76 25 88 26 322 26 134 0 244 3 244 6 0 10 -48 65 -133 153 -412
423 -1012 681 -1585 681 -89 0 -124 -3 -127 -12z m827 -833 c2 -3 -8 -44 -23
-92 -15 -49 -38 -122 -51 -163 l-23 -75 -165 -5 c-182 -6 -217 -16 -245 -70
-30 -58 -24 -70 141 -272 64 -79 126 -163 137 -187 28 -65 21 -185 -17 -264
-58 -121 -204 -242 -348 -290 -56 -18 -95 -21 -335 -25 -150 -2 -273 -1 -273
3 0 9 26 100 71 248 l30 97 165 0 c176 0 206 7 238 52 17 23 21 64 10 93 -4 9
-62 84 -131 168 -161 198 -168 209 -168 317 0 75 4 93 33 154 62 132 220 257
379 300 47 13 563 23 575 11z"/>
</g>
</svg>
